<svg xmlns="http://www.w3.org/2000/svg" viewBox="0 0 148.92 104.17"><defs><style>.cls-1{fill:#fff;}</style></defs><g id="Laag_2" data-name="Laag 2"><g id="EDITABLE_TEXT"><path class="cls-1" d="M148.92,55.11c0-6.25-4-11.31-10.08-11.31-3,0-6.7,3.32-8.69,5.37-2-2.05-5.41-5.38-8.45-5.38-6.07,0-10.33,5.07-10.33,11.32a11.46,11.46,0,0,0,3.22,8h0l15.57,15.6,15.55-15.58h0A11.46,11.46,0,0,0,148.92,55.11Z"/><path class="cls-1" d="M82.64,104.17h-.16a2.54,2.54,0,0,1-2.36-2.12L72.21,56l-12,22.21a2.55,2.55,0,0,1-4.78-.85L50.36,41.81,41.06,62.7a2.55,2.55,0,0,1-2.34,1.52H2.56a2.56,2.56,0,1,1,0-5.11h34.5L49.3,31.62a2.56,2.56,0,0,1,4.87.68L59.41,69,71.22,47a2.56,2.56,0,0,1,4.77.78l7.33,42.66L110,1.82a2.56,2.56,0,0,1,4.75-.38l14,29.12a2.56,2.56,0,0,1-4.61,2.22L113,9.59,85.08,102.35A2.54,2.54,0,0,1,82.64,104.17Z"/></g></g></svg>