<svg xmlns="http://www.w3.org/2000/svg" viewBox="0 0 107.36 147.57"><defs><style>.cls-1{fill:#fff;}</style></defs><g id="Laag_2" data-name="Laag 2"><g id="EDITABLE_TEXT"><path class="cls-1" d="M107.07.42a1.27,1.27,0,0,0-.95-.42H1.22A1.27,1.27,0,0,0,.28.42a1.25,1.25,0,0,0-.26,1L17.64,108a1.23,1.23,0,0,0,1.21,1H40.48L42,126.38h-9.1L54,147.57l21.22-21.23H66.17L67.64,109h22a1.22,1.22,0,0,0,1.21-1L107.34,1.41A1.24,1.24,0,0,0,107.07.42ZM66.53,85.75A16.86,16.86,0,0,1,54,90.11a16.85,16.85,0,0,1-12.53-4.36c-7.86-7.86-5.06-17.62-2.32-22.67C40.85,59.92,52.92,41.79,54,40.24v-.12l0,.06,0-.06v.12c1,1.55,13.1,19.68,14.79,22.84C71.58,68.13,74.38,77.89,66.53,85.75ZM99.8,22.84c-2.84-1.25-6.44-.8-9.91.6-13,5.28-21.87,7.17-35.56,2.89-8.62-2.7-16.68-8.35-26.22-4.91-6.33,2.27-12.22,4.45-19.38,4.39L4.6,4.63h98.17Z"/></g></g></svg>