<svg xmlns="http://www.w3.org/2000/svg" viewBox="0 0 148.51 150"><defs><style>.cls-1{fill:#fff;}</style></defs><g id="Laag_2" data-name="Laag 2"><g id="EDITABLE_TEXT"><path class="cls-1" d="M147.33,83.32,112.57,63.26V23.12a2.35,2.35,0,0,0-1.19-2.05L75.44.32a2.34,2.34,0,0,0-2.37,0L37.13,21.07a2.35,2.35,0,0,0-1.19,2.05V63.26L1.19,83.32A2.36,2.36,0,0,0,0,85.37v41.51a2.38,2.38,0,0,0,1.19,2.06l35.94,20.74a2.38,2.38,0,0,0,1.18.32,2.41,2.41,0,0,0,1.19-.32l34.76-20.06L109,149.68a2.41,2.41,0,0,0,1.19.32,2.38,2.38,0,0,0,1.18-.32l36-20.74a2.39,2.39,0,0,0,1.18-2.06V85.37A2.37,2.37,0,0,0,147.33,83.32ZM71.89,122.77,43.06,106.13,71.89,89.48Zm33.56-58.14L76.63,81.27V48ZM71.89,81.27,43.06,64.63,71.89,48ZM79,85.37l31.2-18,31.2,18-31.2,18Zm28.82-24.85L79,43.87l28.82-16.64ZM69.51,43.87,40.68,60.52V27.23ZM35.94,143.52l-31.2-18v-36l31.2,18Zm4.74,0V110.23l28.83,16.65Zm103.09-18-31.2,18v-36l31.2-18Z"/></g></g></svg>