<svg xmlns="http://www.w3.org/2000/svg" viewBox="0 0 150 76.48"><defs><style>.cls-1{fill:#fff;}</style></defs><g id="Laag_2" data-name="Laag 2"><g id="EDITABLE_TEXT"><path class="cls-1" d="M149.42,37.4C144.08,29.91,119.92,0,75,0S5.93,29.91.58,37.4c-.22.33-.42.6-.58.84l.58.84C5.93,46.57,30.09,76.48,75,76.48s69.07-29.91,74.41-37.4c.23-.32.43-.6.58-.84-.15-.24-.35-.51-.58-.84M50,18.92c.41-.6,1.75-2.3,1.91-2.51a2.37,2.37,0,0,1,1.52-.62c.48-.09,1.11.17,1.19.53a4.26,4.26,0,0,1-.42,2,5.19,5.19,0,0,1-3.32,1.5c-.73-.11-1-.68-.88-.89m-1.6,3.19.16-.19A4.14,4.14,0,0,1,51,21c.78-.13,1.81.26,1.94.78s-2,1.46-2.33,1.81c-1.09,1-2.78,3-3.77,3.24a1.11,1.11,0,0,1-.8-.08,30.15,30.15,0,0,1,2.33-4.65M65.16,56.59a8.92,8.92,0,0,1-1.93,4A6.5,6.5,0,0,1,59,62.23c-1.43-.11-1.62-3.9-1.62-5.86,0-.67-1,1.33-1.46-2.74-.32-2.6-2,.27-2.1-1.46s-1-1.39-1.84-2.47-2,.11-3.18.65-.71.83-2.44.28l-.11,0a31.24,31.24,0,0,1-2.45-12.18q0-1.57.15-3.12a2.08,2.08,0,0,1,.19-.29c1.66-2,1.62-2.42,1.62-2.42L47.56,32a30.48,30.48,0,0,1,5.13,1.28c1.81.68,4.67,2.22,6.33,1.54,1.2-.5,2.14-1.15,2-2.15-.14-1.26-1.13-1.56-2.32-.71-.44.31-1.38-1.89-2.12-1.78s.91,2.59.29,2.69-1.89-2.58-2.11-3-1.18-1.52-2.06-.69c-1.84,1.75-4.84,1.64-5.44,2.09C45.46,32.58,45,30.76,45,29.65c.07-.25.14-.51.23-.76a3.74,3.74,0,0,1,3.48-.38c.81.54,1.39-.14,1.7-.47a1.13,1.13,0,0,0,0-1.27c-.21-.44.4-.76.82-.87a20.68,20.68,0,0,0,2.38-1.41,7.88,7.88,0,0,1,4.75,0,2.51,2.51,0,0,0,3.12-.63,8.39,8.39,0,0,1,2.27-1.89c.45-.21-1.12-1.68-2.41-.08s-1.95,1.74-2.56,1.74-4.22-.9-4.66-2,1.13-2,2.46-2.64,5-.63,5.91-.84c1.9-.42,4.32-1.37,5.54-.54s-5.1,2.25-3,3.38c.74.4,4.08-1.92,5.22-2.52C73,17,67.65,16.55,68.34,13.73c.78-3.19-6.5-2-10.13-1.68a31.28,31.28,0,0,1,47.27,19,5.23,5.23,0,0,1-.15,1.45,2,2,0,0,1-3.67.28c-.31-.45-1.65-1.72-1.61.45s2.11,2.39.11,3.69a7.61,7.61,0,0,1-3.29,1.31c-.92.33-1.82,2.57-1.6,3.76s3.08,4.46,1,4.32c-.49,0-4.23-2.59-4.85-4.23S90,38.7,89.52,37.39a1.87,1.87,0,0,0-3-.86c-1.11.76.31,1.52-.49,3.15s-1.37,3.08-2.55,1.74c-3-3.5-7.49-1.78-8.19-5.67-.37-2.11-2.19-1.91-3.71-3.11s-2.38-1.83-2.63-1,4.78,4.73,5.14,5.74c.53,1.51-1.5,2.85-3,3.21s-2.14-.84-3.59-2.36-2.1-2.6-2.2-1.41c-.15,1.73,1.38,4.25,2.87,5.2,1.27.8,2.68,1.16,2.27,2.47s0,.56-1.42,2-1.69,1.86-1.59,3.81-.41,2.06-.71,3.69-1,.22-1.62,2.6M98.72,44.11c1-.08,2.63,1.37,2,1.93s-2.19.36-3-.26.5-1.63,1-1.67m-1.33-1c-.34-.13-.63-.44-.89-1.21a.7.7,0,0,1,1-.9c.64.33,1.48,1.28,1.48,1.8s-1.26.45-1.61.31m-13.81,0c-.62.55-2.2.35-3-.27s.5-1.63,1-1.67c1-.09,2.63,1.38,2,1.94M70.8,49.31c-.43.7-1.6,6-2.39,5.35s.32-6.1.55-6.52c1.23-2.26,3.9-2.15,1.84,1.17M75.06,69.7a31.15,31.15,0,0,1-8.8-1.26,1.29,1.29,0,0,1-.38-1.53c1-2.52,3.86-3.51,6.13-3.73,5.08-.49,11.74,3.3,12.8,2.68s3.21-3.39,6.36-3.28A4.89,4.89,0,0,1,94,63.3a31.17,31.17,0,0,1-19,6.4m22.07-9.1a5,5,0,0,1-1-.37c-1.71-.87-1.5.52-2.34.22s1-2.27-1.58-.62-1.83-.25-2.93-3,1.27-6,3.24-6.68a38.49,38.49,0,0,1,5.68-1.5c3.76-.94,4.56-3.17,5.24-1.81q.19.38.36.72a4.91,4.91,0,0,1,.49,2,31.49,31.49,0,0,1-7.17,11m8.57-15.8c-.84-.23-4.36-5.09-1.58-8.28.46-.53-.93-2.07-.55-2.11,1.52-.11,2.33.83,2.73,2.19,0,.6,0,1.2,0,1.81a32,32,0,0,1-.65,6.39"/></g></g></svg>