<svg xmlns="http://www.w3.org/2000/svg" viewBox="0 0 109.38 147.57"><defs><style>.cls-1{fill:#fff;}</style></defs><g id="Laag_2" data-name="Laag 2"><g id="EDITABLE_TEXT"><path class="cls-1" d="M108.93,0H74.47A.45.45,0,0,0,74,.44V11.89a.44.44,0,0,0,.44.44H88.19L73,27.57a45.12,45.12,0,1,0-33.65,80.24V121H25.72a.44.44,0,0,0-.45.44v12.27a.44.44,0,0,0,.45.44H39.31v13a.43.43,0,0,0,.43.44H52a.44.44,0,0,0,.45-.44v-13H66.05a.44.44,0,0,0,.43-.44V121.44a.44.44,0,0,0-.43-.44H52.46V107.59A45.1,45.1,0,0,0,82,37.1l15-15V34.9a.44.44,0,0,0,.44.44h11.45a.45.45,0,0,0,.45-.44V.44a.45.45,0,0,0-.45-.44M45.13,96.28A33.22,33.22,0,1,1,78.35,63.06,33.25,33.25,0,0,1,45.13,96.28"/><path class="cls-1" d="M65.75,49.43H25.46a.42.42,0,0,0-.44.39v9.75a.43.43,0,0,0,.44.41H65.75a.43.43,0,0,0,.45-.41V49.82a.43.43,0,0,0-.45-.39"/><path class="cls-1" d="M65.75,66.85H25.46a.42.42,0,0,0-.44.4V77a.42.42,0,0,0,.44.39H65.75A.43.43,0,0,0,66.2,77V67.25a.43.43,0,0,0-.45-.4"/></g></g></svg>