<svg xmlns="http://www.w3.org/2000/svg" viewBox="0 0 147.66 124.93"><defs><style>.cls-1{fill:#fff;}</style></defs><g id="Laag_2" data-name="Laag 2"><g id="EDITABLE_TEXT"><path class="cls-1" d="M147.34,90.72c-3.43-4.64-25.6-32.9-56.68-32.9-27,0-55.86,24.48-55.86,24.48S24,60.1,1.76,58c-.13,0-.27,0-.41,0H1.21a.89.89,0,0,0-.85.88,2.46,2.46,0,0,0,.35.81c2.86,4.75,10.16,18.25,10.16,31.75S3.53,118.46.69,123.19l-.19.3a.87.87,0,0,0,.68,1.34l.24,0a.93.93,0,0,0,.23,0c22.26-2.08,33.15-24.34,33.15-24.34s28.87,24.48,55.86,24.48c31.08,0,53.25-28.27,56.68-32.89.1-.13.17-.24.24-.32a.94.94,0,0,0,.08-.34.89.89,0,0,0-.08-.34c-.07-.1-.14-.2-.24-.32M107.94,95A9.07,9.07,0,1,1,117,85.87,9.08,9.08,0,0,1,107.94,95"/><path class="cls-1" d="M1.06,4.69a1.36,1.36,0,0,0-.17,0,.89.89,0,0,0-.89.9v6.19a.87.87,0,0,0,.26.64c15,13,29.21.82,32.5-2.41A1.1,1.1,0,0,1,33,9.72a1,1,0,0,1,.49-.16.88.88,0,0,1,.61.24s0,0,0,0c16.95,16.17,34.72,3.07,38.42,0l.36-.33a.8.8,0,0,1,.34-.07.78.78,0,0,1,.35.07l.37.33c3.69,3.07,21.46,16.17,38.41,0,0,0,0,0,0,0a.88.88,0,0,1,.61-.24.92.92,0,0,1,.49.16,1.18,1.18,0,0,1,.25.25c3.28,3.23,17.47,15.45,32.49,2.41a.87.87,0,0,0,.26-.64V5.55a.89.89,0,0,0-.88-.9,1.29,1.29,0,0,0-.19,0l-.45.23c-4.62,2.32-18.93,7.81-31.92-4.48l-.38-.36a.92.92,0,0,0-.38-.08,1.78,1.78,0,0,0-.26,0,1,1,0,0,0-.46.35c-3.87,2.95-21.64,15-37.47.22L73.89.39a1,1,0,0,0-.64-.27.93.93,0,0,0-.62.27l-.25.22C56.57,15.37,38.78,3.34,34.91.39A1,1,0,0,0,34.47,0a2.36,2.36,0,0,0-.28,0,1,1,0,0,0-.38.08,3.24,3.24,0,0,1-.38.36c-13,12.29-27.29,6.8-31.91,4.48l-.46-.23"/><path class="cls-1" d="M32.76,32.48a1.05,1.05,0,0,1,.23-.24,1,1,0,0,1,.49-.17.83.83,0,0,1,.61.25l0,0c16.95,16.15,34.72,3.06,38.42,0l.36-.35a1,1,0,0,1,.34-.06,1,1,0,0,1,.36.06l.36.35c3.69,3.06,21.46,16.15,38.41,0l0,0a.85.85,0,0,1,.61-.25.93.93,0,0,1,.49.17,1.13,1.13,0,0,1,.25.24c3.28,3.23,17.47,15.45,32.49,2.4a.87.87,0,0,0,.27-.62V28.05a.88.88,0,0,0-.89-.88,1.25,1.25,0,0,0-.19,0l-.45.23c-4.61,2.31-18.93,7.8-31.92-4.48l-.38-.35a.69.69,0,0,0-.38-.09.58.58,0,0,0-.26.06.79.79,0,0,0-.46.34c-3.87,2.94-21.64,15-37.47.21l-.23-.23a.9.9,0,0,0-.64-.25.87.87,0,0,0-.62.25l-.25.23c-15.81,14.77-33.6,2.73-37.47-.21a.75.75,0,0,0-.44-.34.75.75,0,0,0-.65,0l-.39.35c-13,12.28-27.29,6.79-31.91,4.48l-.46-.23a1.22,1.22,0,0,0-.17,0,.88.88,0,0,0-.89.88v6.21a.86.86,0,0,0,.26.62c15,13,29.21.83,32.5-2.4"/></g></g></svg>