<svg xmlns="http://www.w3.org/2000/svg" viewBox="0 0 144.99 123.56"><defs><style>.cls-1{fill:#fff;}</style></defs><g id="Laag_2" data-name="Laag 2"><g id="EDITABLE_TEXT"><path class="cls-1" d="M49.13,117.9v3.78a.21.21,0,0,0,0,.18,1.78,1.78,0,0,0,1.74,1.7H95.39a1.78,1.78,0,0,0,1.75-1.78h0a0,0,0,0,1,0,0v-4.27c25-8.19,43.69-28.43,47.8-53.1l0-.15a2.11,2.11,0,0,0,0-.25,1.79,1.79,0,0,0-1.79-1.79H1.8A1.79,1.79,0,0,0,0,64l.09.81c4.32,24.9,23.55,45.26,49,53.11"/><path class="cls-1" d="M97.1,1.84c-.58.83-14.24,20.5.31,36.4,6.67,7.3,6.09,13.74,4.18,18.09h9.34c1.89-6.42,1.11-14.48-6.47-22.76-10.72-11.71.14-27.55.3-27.8A3.49,3.49,0,0,0,103.25.55,5,5,0,0,0,97.1,1.84"/><path class="cls-1" d="M73.47,56.33H82.8c1.89-6.42,1.11-14.48-6.47-22.76-10.72-11.72.12-27.55.3-27.81A3.49,3.49,0,0,0,75.11.55,5,5,0,0,0,69,1.84c-.58.83-14.26,20.5.3,36.4,6.68,7.3,6.1,13.74,4.2,18.09"/><path class="cls-1" d="M40.84,1.84c-.59.83-14.26,20.5.3,36.4,6.67,7.3,6.09,13.74,4.19,18.09h9.34c1.88-6.42,1.1-14.47-6.48-22.76C37.47,21.86,48.32,6,48.5,5.76A3.5,3.5,0,0,0,47,.55a4.92,4.92,0,0,0-6.13,1.29"/></g></g></svg>