<svg xmlns="http://www.w3.org/2000/svg" viewBox="0 0 138.98 146.94"><defs><style>.cls-1{fill:#fff;}</style></defs><g id="Laag_2" data-name="Laag 2"><g id="EDITABLE_TEXT"><path class="cls-1" d="M125.63,34.78,96.24,62.73a4.85,4.85,0,0,0-1.68,4.2v78.34a1.68,1.68,0,0,0,1.68,1.67h30.35a1.68,1.68,0,0,0,1.68-1.67V35.48c0-.92-.73-2.61-2.64-.7"/><path class="cls-1" d="M41,71.19l-29.39,28a4.9,4.9,0,0,0-1.67,4.2v41.93a1.67,1.67,0,0,0,1.67,1.67H41.94a1.67,1.67,0,0,0,1.67-1.67V71.9c0-.93-.73-2.62-2.64-.71"/><path class="cls-1" d="M139,.88a.83.83,0,0,0-.25-.64.89.89,0,0,0-.54-.24h-.4L115.29,5.1l-.41,0a.85.85,0,0,0-.44.23.86.86,0,0,0,0,1.21l.25.26L119.83,12l-51,51L45.3,39.41a.67.67,0,0,0-1,0L38,45.8h0L.2,83.55a.67.67,0,0,0,0,1l6.39,6.4a.69.69,0,0,0,1,0L44.82,53.64,61.91,70.73l.06.08,6.39,6.38a.67.67,0,0,0,1,0l57.86-57.86,5.4,5.39a.85.85,0,0,0,1.2,0,.81.81,0,0,0,.24-.56v-.07l4.94-23Z"/><path class="cls-1" d="M83.46,76.1,69.25,90.44a.69.69,0,0,1-.92,0L55.45,77.27c-2.36-2.35-2.87-.44-2.87.48v67.52a1.67,1.67,0,0,0,1.67,1.67H84.61a1.67,1.67,0,0,0,1.67-1.67V76.63c0-.92-.73-2.62-2.82-.53"/></g></g></svg>