<svg xmlns="http://www.w3.org/2000/svg" viewBox="0 0 150 146.85"><defs><style>.cls-1{fill:#fff;}</style></defs><g id="Laag_2" data-name="Laag 2"><g id="EDITABLE_TEXT"><path class="cls-1" d="M150,65.56a39.39,39.39,0,0,0-37.9-39.31,39.34,39.34,0,0,0-74.2,0A39.32,39.32,0,0,0,15.18,96.58a39.33,39.33,0,0,0,60,43.38,39.33,39.33,0,0,0,59.69-43.42,39.32,39.32,0,0,0,15.12-31M106.42,39.35a31.43,31.43,0,0,1-26.79,31,31.89,31.89,0,0,1-.41-4.83,31.44,31.44,0,0,1,26.79-31,30.66,30.66,0,0,1,.41,4.83m-31.28,90.4A31.33,31.33,0,0,1,74.85,85a31.31,31.31,0,0,1,.29,44.76M44,34.52a31.44,31.44,0,0,1,26.8,31,30.65,30.65,0,0,1-.42,4.83,31.44,31.44,0,0,1-26.79-31A31.89,31.89,0,0,1,44,34.52m23.43,45.1a31.31,31.31,0,0,1-42.5,13.83,31.31,31.31,0,0,1,42.5-13.83m15.07-.21a31.33,31.33,0,0,1,42.71,14,31.33,31.33,0,0,1-42.71-14M75,7.92a31.46,31.46,0,0,1,28.8,18.9A39.46,39.46,0,0,0,75,48.93,39.45,39.45,0,0,0,46.19,26.82,31.46,31.46,0,0,1,75,7.92M7.92,65.56A31.47,31.47,0,0,1,36,34.32a39.84,39.84,0,0,0-.33,5A39.27,39.27,0,0,0,48.5,68.42,39.43,39.43,0,0,0,18.33,88.86,31.32,31.32,0,0,1,7.92,65.56m13.63,42a31.08,31.08,0,0,1,.69-6.52,39.29,39.29,0,0,0,36.11-1,39.16,39.16,0,0,0,10.44,34.6A31.11,31.11,0,0,1,53,138.93a31.46,31.46,0,0,1-31.43-31.42m106.9-.27a31.37,31.37,0,0,1-46.93,27.3,39.17,39.17,0,0,0,10.81-27A39.64,39.64,0,0,0,91.6,100a39.26,39.26,0,0,0,36.21,1,31,31,0,0,1,.64,6.28m-26.72-39a39.28,39.28,0,0,0,12.62-28.84,39.84,39.84,0,0,0-.33-5,31.37,31.37,0,0,1,17.73,54.46,39.4,39.4,0,0,0-30-20.59"/></g></g></svg>