<svg xmlns="http://www.w3.org/2000/svg" viewBox="0 0 144.99 108.35"><defs><style>.cls-1{fill:#fff;}</style></defs><g id="Laag_2" data-name="Laag 2"><g id="EDITABLE_TEXT"><path class="cls-1" d="M1,78.34H33.07a.79.79,0,0,0,.79-.79.76.76,0,0,0-.21-.52l0,0-16-20.67-.16-.18a.79.79,0,0,0-1.1-.05l-.09.11-.15.17L.53,76.82l-.24.29a.84.84,0,0,0-.13.44A.79.79,0,0,0,1,78.34Z"/><path class="cls-1" d="M33,81.26H.79a.79.79,0,0,0-.79.79v25.19a.79.79,0,0,0,.79.79H11.15V92.18a.79.79,0,0,1,.79-.79h9.61a.79.79,0,0,1,.79.79V108H33a.79.79,0,0,0,.79-.79V82.05A.79.79,0,0,0,33,81.26Z"/><path class="cls-1" d="M144.21,74.67H112.35a.75.75,0,0,0-.77.75v32.17a.76.76,0,0,0,.77.76h31.86a.77.77,0,0,0,.78-.76V75.42a.76.76,0,0,0-.78-.75m-17.43,21a.77.77,0,0,1-.78.76h-9.51a.77.77,0,0,1-.79-.76V89.88a.77.77,0,0,1,.79-.76H126a.77.77,0,0,1,.78.76Zm0-10.69a.77.77,0,0,1-.78.76h-9.51a.77.77,0,0,1-.79-.76V79.19a.77.77,0,0,1,.79-.76H126a.77.77,0,0,1,.78.76Zm14.55,10.69a.77.77,0,0,1-.78.76H131a.77.77,0,0,1-.78-.76V89.88a.77.77,0,0,1,.78-.76h9.52a.77.77,0,0,1,.78.76Zm0-10.69a.77.77,0,0,1-.78.76H131a.77.77,0,0,1-.78-.76V79.19a.77.77,0,0,1,.78-.76h9.52a.77.77,0,0,1,.78.76Z"/><path class="cls-1" d="M70.16,0H39a.77.77,0,0,0-.76.76V107.31a.77.77,0,0,0,.76.76H70.16a.77.77,0,0,0,.77-.76V.76A.77.77,0,0,0,70.16,0M51.61,95.93a.4.4,0,0,1-.4.41H44.07a.41.41,0,0,1-.41-.41V88a.41.41,0,0,1,.41-.41h7.14a.4.4,0,0,1,.4.41Zm0-18.27a.4.4,0,0,1-.4.41H44.07a.41.41,0,0,1-.41-.41v-8a.41.41,0,0,1,.41-.41h7.14a.4.4,0,0,1,.4.41Zm0-18.26a.4.4,0,0,1-.4.4H44.07a.4.4,0,0,1-.41-.4v-8a.41.41,0,0,1,.41-.41h7.14a.4.4,0,0,1,.4.41Zm0-18.27a.41.41,0,0,1-.4.41H44.07a.41.41,0,0,1-.41-.41v-8a.41.41,0,0,1,.41-.41h7.14a.4.4,0,0,1,.4.41Zm0-18.27a.41.41,0,0,1-.4.41H44.07a.41.41,0,0,1-.41-.41v-8a.41.41,0,0,1,.41-.41h7.14a.41.41,0,0,1,.4.41Zm14,73.07a.41.41,0,0,1-.41.41H58.07a.41.41,0,0,1-.41-.41V88a.41.41,0,0,1,.41-.41H65.2a.41.41,0,0,1,.41.41Zm0-18.27a.41.41,0,0,1-.41.41H58.07a.41.41,0,0,1-.41-.41v-8a.41.41,0,0,1,.41-.41H65.2a.41.41,0,0,1,.41.41Zm0-18.26a.4.4,0,0,1-.41.4H58.07a.4.4,0,0,1-.41-.4v-8a.41.41,0,0,1,.41-.41H65.2a.41.41,0,0,1,.41.41Zm0-18.27a.41.41,0,0,1-.41.41H58.07a.41.41,0,0,1-.41-.41v-8a.41.41,0,0,1,.41-.41H65.2a.41.41,0,0,1,.41.41Zm0-18.27a.41.41,0,0,1-.41.41H58.07a.41.41,0,0,1-.41-.41v-8a.41.41,0,0,1,.41-.41H65.2a.41.41,0,0,1,.41.41Z"/><rect class="cls-1" x="111.61" y="64.38" width="33.34" height="7.7" rx="0.64"/><path class="cls-1" d="M107.81,20.12a.82.82,0,0,0-.78-.6.83.83,0,0,0-.44.15l-.06,0-.27.33L75.63,58.91l-.15.19a.87.87,0,0,0-.26.6v47.77a.76.76,0,0,0,.76.76h31.15a.76.76,0,0,0,.76-.76v-87A.66.66,0,0,0,107.81,20.12ZM94.92,41.23l.21-.28c2.1-2.69,5.63-7,7.36-9.15l.22-.27a.87.87,0,0,1,.69-.32.89.89,0,0,1,.85.71v9.83a.88.88,0,0,1-.85.88H95.59a.88.88,0,0,1-.85-.88A.86.86,0,0,1,94.92,41.23ZM90.07,95.66a.76.76,0,0,1-.77.76H80a.76.76,0,0,1-.76-.76V89.84a.76.76,0,0,1,.76-.76H89.3a.76.76,0,0,1,.77.76Zm0-10.75a.76.76,0,0,1-.77.77H80a.76.76,0,0,1-.76-.77V79.1a.75.75,0,0,1,.76-.76H89.3a.76.76,0,0,1,.77.76Zm0-10.74a.76.76,0,0,1-.77.76H80a.76.76,0,0,1-.76-.76V68.35a.76.76,0,0,1,.76-.76H89.3a.76.76,0,0,1,.77.76Zm0-23.55V63.43a.76.76,0,0,1-.76.76H80a.77.77,0,0,1-.77-.76V61.82a1.36,1.36,0,0,1,.06-.29l0-.08.07-.11a1.25,1.25,0,0,0,.08-.12c1.19-1.7,6.55-8.3,8.8-11.06l.23-.27a.88.88,0,0,1,.68-.33.87.87,0,0,1,.85.71Zm14.18,45a.76.76,0,0,1-.76.76H94.22a.76.76,0,0,1-.77-.76V89.84a.76.76,0,0,1,.77-.76h9.29a.76.76,0,0,1,.76.76Zm0-10.75a.76.76,0,0,1-.76.77H94.22a.76.76,0,0,1-.77-.77V79.1a.76.76,0,0,1,.77-.76h9.29a.75.75,0,0,1,.76.76Zm0-10.74a.76.76,0,0,1-.76.76H94.22a.76.76,0,0,1-.77-.76V68.35a.76.76,0,0,1,.77-.76h9.29a.76.76,0,0,1,.76.76Zm0-10.75a.76.76,0,0,1-.76.76H94.22a.76.76,0,0,1-.77-.76V57.6a.76.76,0,0,1,.77-.76h9.29a.76.76,0,0,1,.76.76Zm0-10.75a.76.76,0,0,1-.76.76H94.22a.76.76,0,0,1-.77-.76V46.86a.76.76,0,0,1,.77-.77h9.29a.76.76,0,0,1,.76.77Z"/></g></g></svg>