<svg xmlns="http://www.w3.org/2000/svg" viewBox="0 0 150 147.05"><defs><style>.cls-1{fill:#fff;}</style></defs><g id="Laag_2" data-name="Laag 2"><g id="EDITABLE_TEXT"><path class="cls-1" d="M41.24,85.32h9a.68.68,0,0,1,.68.68v22.29a.68.68,0,0,1-.68.68h-9a.68.68,0,0,1-.68-.68V86A.67.67,0,0,1,41.24,85.32Z"/><path class="cls-1" d="M149.32,118.54H.68a.7.7,0,0,0-.68.7v9.08a.68.68,0,0,0,.68.67H149.32a.69.69,0,0,0,.68-.67v-9.08a.7.7,0,0,0-.68-.7"/><path class="cls-1" d="M149.32,136.59H.68a.68.68,0,0,0-.68.67v9.12a.69.69,0,0,0,.68.67H149.32a.69.69,0,0,0,.68-.67v-9.12a.69.69,0,0,0-.68-.67"/><path class="cls-1" d="M121,60.65c-1.85-1.45-6.81-4.84-12.85-4.84a17.19,17.19,0,0,0-11.94,5.07,1.28,1.28,0,0,0-.4.93v.81a1.28,1.28,0,0,0,.43,1,1.2,1.2,0,0,0,1,.24,1.43,1.43,0,0,0,.28-.07,2,2,0,0,0,.75-.47,12,12,0,0,1,6-1.24,22.45,22.45,0,0,1,15.31,6.42l.14.12a1.78,1.78,0,0,0,1.29.54,1.75,1.75,0,0,0,1.26-.53l.12-.12a22.54,22.54,0,0,1,15.34-6.43,12,12,0,0,1,6,1.24,2.08,2.08,0,0,0,.82.5,1.79,1.79,0,0,0,.87,0,1.28,1.28,0,0,0,.94-1.23v-.71A1.28,1.28,0,0,0,146,61a17.23,17.23,0,0,0-12.08-5.21c-6,0-10.93,3.34-12.84,4.85"/><path class="cls-1" d="M111.81,1.41a1.27,1.27,0,0,0-.65.78l-.15.5a1.28,1.28,0,0,0,.2,1.12,1.23,1.23,0,0,0,.92.5.54.54,0,0,0,.18,0,1.51,1.51,0,0,0,.72-.18,3.61,3.61,0,0,1,.9-.1c.67,0,6.66.2,10.62,6.94l0,.09a1.52,1.52,0,0,0,1,.76,1.85,1.85,0,0,0,.48.08,1.56,1.56,0,0,0,.74-.19l.1-.05A14.89,14.89,0,0,1,133.5,10c3.76,0,6.21,1.54,6.78,2.17a1.79,1.79,0,0,0,.5.56,5.24,5.24,0,0,0,.48.23.83.83,0,0,0,.22,0h.14a1.22,1.22,0,0,0,.58-.15,1.24,1.24,0,0,0,.64-.76l.12-.44a1,1,0,0,0,0-.36,1.25,1.25,0,0,0-.17-.64,11.19,11.19,0,0,0-10.08-6.06,15.64,15.64,0,0,0-5.35,1C126.05,3.79,122.6,0,117.38,0a12.36,12.36,0,0,0-5.57,1.41"/><path class="cls-1" d="M80.4,24.28l0,.67A1.21,1.21,0,0,0,81,26a1.26,1.26,0,0,0,1,.15l.22-.07a1.67,1.67,0,0,0,.64-.47,10.84,10.84,0,0,1,5.67-1.29,18.34,18.34,0,0,1,11.75,4.45l.1.1a1.75,1.75,0,0,0,1.15.43h.11a1.72,1.72,0,0,0,1.17-.56l.1-.11a17.85,17.85,0,0,1,13-6,8.75,8.75,0,0,1,3.87.71,2.13,2.13,0,0,0,.78.4,1.59,1.59,0,0,0,.54,0,1.55,1.55,0,0,0,.31-.07,1.26,1.26,0,0,0,.84-1.28l0-.58a1.21,1.21,0,0,0-.45-.88,14.54,14.54,0,0,0-9.5-3.75c-5.23,0-9.4,3.09-11.13,4.61a18.54,18.54,0,0,0-9.92-3.3,14.18,14.18,0,0,0-10.54,4.88,1.32,1.32,0,0,0-.35,1"/><path class="cls-1" d="M5.18,36.21A16.12,16.12,0,0,1,21.3,20.1c.35,0,.69,0,1,0A21.79,21.79,0,1,1,63.65,31.3a24.36,24.36,0,0,1-5.28,48.14l-32.52-.19h0A17.22,17.22,0,0,1,13.3,50.19,16.11,16.11,0,0,1,5.18,36.21Z"/></g></g></svg>