<svg xmlns="http://www.w3.org/2000/svg" viewBox="0 0 145.55 145.55"><defs><style>.cls-1{fill:#fff;}</style></defs><g id="Laag_2" data-name="Laag 2"><g id="EDITABLE_TEXT"><path class="cls-1" d="M73.15,145.55a3.5,3.5,0,0,0,3.43-3.22V124a3.45,3.45,0,0,0-6.88,0v18.31a3.51,3.51,0,0,0,3.45,3.22"/><path class="cls-1" d="M72.77,31.32a41.82,41.82,0,1,0,41.81,41.81A41.81,41.81,0,0,0,72.77,31.32m-3.1,16.52a3.11,3.11,0,0,1,6.21,0V62.19a3.11,3.11,0,0,1-6.21,0Zm3.1,46.72A21.75,21.75,0,0,1,66.31,52v8.1a14.24,14.24,0,1,0,12.89,0V52a21.75,21.75,0,0,1-6.43,42.53"/><path class="cls-1" d="M24.76,72.77a3.48,3.48,0,0,0-3.21-3.43H3.24a3.44,3.44,0,0,0,0,6.87H21.55a3.49,3.49,0,0,0,3.21-3.44"/><path class="cls-1" d="M145.55,72.77a3.49,3.49,0,0,0-3.21-3.43H124a3.44,3.44,0,0,0,0,6.87h18.31a3.5,3.5,0,0,0,3.21-3.44"/><path class="cls-1" d="M72.78,24.76a3.49,3.49,0,0,0,3.43-3.21V3.24a3.44,3.44,0,0,0-6.87,0V21.55a3.5,3.5,0,0,0,3.44,3.21"/><path class="cls-1" d="M31.11,48.92A3.49,3.49,0,0,0,30,44.35l-15.9-9.1a3.44,3.44,0,0,0-3.41,6l15.89,9.09a3.49,3.49,0,0,0,4.5-1.39"/><path class="cls-1" d="M135.94,108.92a3.5,3.5,0,0,0-1.08-4.58L119,95.25a3.44,3.44,0,0,0-3.41,6l15.89,9.09a3.5,3.5,0,0,0,4.5-1.39"/><path class="cls-1" d="M96.63,31.11A3.5,3.5,0,0,0,101.2,30l9.1-15.9a3.44,3.44,0,0,0-6-3.41l-9.1,15.89a3.51,3.51,0,0,0,1.4,4.5"/><path class="cls-1" d="M36.63,135.94a3.5,3.5,0,0,0,4.58-1.09L50.3,119a3.45,3.45,0,0,0-6-3.42l-9.09,15.9a3.5,3.5,0,0,0,1.39,4.5"/><path class="cls-1" d="M48.85,31.15a3.5,3.5,0,0,0,1.37-4.5L41.09,10.78a3.44,3.44,0,0,0-6,3.43l9.13,15.87a3.51,3.51,0,0,0,4.59,1.07"/><path class="cls-1" d="M109.06,135.86a3.5,3.5,0,0,0,1.37-4.5l-9.12-15.87a3.44,3.44,0,0,0-6,3.43l9.12,15.87a3.52,3.52,0,0,0,4.59,1.07"/><path class="cls-1" d="M114.4,48.85a3.51,3.51,0,0,0,4.5,1.37l15.87-9.13a3.44,3.44,0,0,0-3.43-6l-15.87,9.13a3.5,3.5,0,0,0-1.07,4.59"/><path class="cls-1" d="M9.69,109.06a3.5,3.5,0,0,0,4.5,1.37l15.87-9.13a3.44,3.44,0,0,0-3.43-6l-15.87,9.13a3.51,3.51,0,0,0-1.07,4.59"/></g></g></svg>