<svg xmlns="http://www.w3.org/2000/svg" viewBox="0 0 149.11 63.89"><defs><style>.cls-1{fill:#fff;}</style></defs><g id="Laag_2" data-name="Laag 2"><g id="EDITABLE_TEXT"><path class="cls-1" d="M136.23,10.84a5.42,5.42,0,1,0-5.42-5.42A5.42,5.42,0,0,0,136.23,10.84Z"/><path class="cls-1" d="M142.55,12.92c-.13,0-.26,0-.41,0H130.3c-.14,0-.28,0-.39,0a7.23,7.23,0,0,0-6.57,7.2v15a2.1,2.1,0,0,0,4.2,0V22.24c0-.49.13-1.14,1-1.14.61,0,.74.65.76,1.06V60.81a3,3,0,1,0,6,0V38.54a.84.84,0,0,1,.88-.89h0a.81.81,0,0,1,.85.89V60.81a3,3,0,1,0,6,0V22.16c0-.41.15-1.06.76-1.06.89,0,1,.65,1,1.14V35.13a2.1,2.1,0,1,0,4.2,0v-15A7.23,7.23,0,0,0,142.55,12.92Z"/><path class="cls-1" d="M93.47,13.39a5.13,5.13,0,1,0-5.13-5.13A5.12,5.12,0,0,0,93.47,13.39Z"/><path class="cls-1" d="M99.58,22.81c.67-.19.85.7.85.7l3.44,11.58s.65,2.49,2.8,1.85,1.4-3.18,1.4-3.18l-4.26-13.88s-1.53-4-4.9-4H88c-3.37,0-4.9,4-4.9,4L78.88,33.76s-.76,2.55,1.39,3.18,2.8-1.85,2.8-1.85l3.44-11.58s.19-.89.86-.7.42,1.15.42,1.15l-6,21.71h5.57V61.21a2.67,2.67,0,0,0,5.34,0V45.67h1.52V61.21a2.68,2.68,0,0,0,5.35,0V45.67h5.56L99.16,24S98.91,23,99.58,22.81Z"/><path class="cls-1" d="M62.75,13.39a5.13,5.13,0,1,0-5.13-5.13A5.12,5.12,0,0,0,62.75,13.39Z"/><path class="cls-1" d="M73.08,19.88s-1.52-4-4.89-4H57.32c-3.37,0-4.9,4-4.9,4L48.16,33.76a3.9,3.9,0,0,0-.13.86A1.53,1.53,0,0,0,46.82,34a1.58,1.58,0,0,0-1.32.73h0c-.13.11-2.12,3.66-2.78,4.32a1.72,1.72,0,0,1-1.32.62H36.22A1.71,1.71,0,0,1,34.9,39c-.67-.66-2.65-4.21-2.78-4.32h0A1.58,1.58,0,0,0,30.79,34a1.51,1.51,0,0,0-1.25.69V20.12A7.23,7.23,0,0,0,23,12.92c-.13,0-.26,0-.4,0H10.74c-.16,0-.28,0-.41,0a7.23,7.23,0,0,0-6.56,7.2v15A2.08,2.08,0,0,0,4.9,37a1.08,1.08,0,0,0-.08.19L0,62.66a.8.8,0,0,0,.64.93H.8A.78.78,0,0,0,1.57,63l4.81-25.5a.76.76,0,0,0,0-.3,2.1,2.1,0,0,0,1.59-2V22.24c0-.49.14-1.14,1-1.14.61,0,.73.65.76,1.06V60.81a3,3,0,1,0,6,0V38.54a.82.82,0,0,1,.86-.89h0a.83.83,0,0,1,.87.89V60.81a3,3,0,0,0,6,0V22.16c0-.41.15-1.06.76-1.06.89,0,1,.65,1,1.14V35.13a2.1,2.1,0,0,0,4,.9c0,.12.06.21.06.21L33.69,44a2.65,2.65,0,0,1,.27,1v1.54l-2.27,8.33H34v6.86h0a2.11,2.11,0,0,0,4.21,0v-6.6a1.83,1.83,0,0,1,0-.26h1.27a1.83,1.83,0,0,1,0,.26v6.6a2.11,2.11,0,0,0,4.21,0V54.92h2.28l-2.28-8.38V45.05a2.73,2.73,0,0,1,.26-1l4-7.19s.25-.55.39-.94a2,2,0,0,0,1.27,1c2.15.64,2.8-1.85,2.8-1.85l3.44-11.58s.19-.89.86-.7.41,1.15.41,1.15l-6,21.71h5.57V61.21a2.67,2.67,0,0,0,5.34,0V45.67h1.52V61.21a2.67,2.67,0,1,0,5.34,0V45.67h5.57L68.44,24s-.25-1,.41-1.15.86.7.86.7l3.44,11.58s.65,2.49,2.8,1.85,1.4-3.18,1.4-3.18Z"/><path class="cls-1" d="M115.82,37a4.27,4.27,0,1,0-4.27-4.27A4.26,4.26,0,0,0,115.82,37Z"/><path class="cls-1" d="M125.94,49.11c0-.16-2.71-6.7-3-7.62-1-2.81-2.71-2.79-4.4-2.83s-2.7,0-2.7,0-1.08,0-3.31,0-2.92,1.21-5.38,7.52c-.35.91-1.53,3.85-1.55,4h0a1.48,1.48,0,0,0,.62,2,1.42,1.42,0,0,0,1.83-.59l2.32-7.4s.4-.5.4,0V61.7h0a2.19,2.19,0,1,0,4.38,0V54.82s-.12-1,.66-1,.66,1,.66,1V61.7a2.2,2.2,0,0,0,4.39,0V44.27c0-.51.27-.14.27-.14L123,49.19a11.83,11.83,0,0,0,1,2.37,1.62,1.62,0,0,0,1.94-2.44Z"/><path class="cls-1" d="M16.65,10.84a5.42,5.42,0,1,0-5.41-5.42A5.42,5.42,0,0,0,16.65,10.84Z"/><path class="cls-1" d="M38.8,37a4.27,4.27,0,1,0-4.26-4.27A4.27,4.27,0,0,0,38.8,37Z"/></g></g></svg>