<svg xmlns="http://www.w3.org/2000/svg" viewBox="0 0 150 147.59"><defs><style>.cls-1{fill:#fff;}</style></defs><g id="Laag_2" data-name="Laag 2"><g id="EDITABLE_TEXT"><path class="cls-1" d="M128.63,1.16s-3.09,4.1-2.19,8.1,5.46,6.37,5.46,6.37,3.09-4.1,2.19-8.09-5.46-6.38-5.46-6.38"/><path class="cls-1" d="M123.6,24.58s3.09-4.11,2.19-8.1-5.46-6.37-5.46-6.37-3.09,4.1-2.19,8.09,5.46,6.38,5.46,6.38"/><path class="cls-1" d="M136.29,20.19s3.26,3.28,7,2.95S149.72,19,149.72,19s-3.25-3.28-7-3-6.46,4.16-6.46,4.16"/><path class="cls-1" d="M141.63,2.62c-3,3.07-2.6,8.49-2.6,8.49s5.33.46,8.36-2.6S150,0,150,0s-5.33-.46-8.35,2.6"/><path class="cls-1" d="M135,32.37c3.7.44,7.18-2.73,7.18-2.73s-2.52-3.89-6.21-4.33-7.19,2.75-7.19,2.75,2.52,3.88,6.22,4.31"/><path class="cls-1" d="M138.27,96.65H110.61a3.91,3.91,0,0,0,0,7.82h27.66a3.91,3.91,0,1,0,0-7.82"/><path class="cls-1" d="M138.27,139.77H110.61a3.91,3.91,0,1,0,0,7.82h27.66a3.91,3.91,0,1,0,0-7.82"/><path class="cls-1" d="M13.9,87.15a18.14,18.14,0,0,0-1.92-.5s.71.23,1.92.5"/><path class="cls-1" d="M137.25,107.2H111.62a2.23,2.23,0,0,0-2.22,2.23v7.76L92.67,119l-24.44-.56V103.54a66.59,66.59,0,0,0,9.73-2C101.48,94.93,106.61,75.48,106.1,62c-.51-13.7,3.87-19,10.17-21.39a28.43,28.43,0,0,1,5.23-1.38,42.1,42.1,0,0,0,2.25,11.94c.56,0,1.12-.08,1.67-.14a39.39,39.39,0,0,1-2.3-12,30,30,0,0,1,5.58-.17,34.78,34.78,0,0,1-5.31-3.78c1-6.49,4.92-10.47,8.9-14.54a48.66,48.66,0,0,0,6.24-7.32l-1.39-.9a46.44,46.44,0,0,1-6,7.06c-3.89,4-7.81,8-9.14,14.48a53.47,53.47,0,0,1-4-4.06c-5.8-6.5-13.27-1.72-23.92,8.19S70,48.22,56.89,34.83C39.63,17.16,24.57,17.26,14.25,18.26c7.06,3,9.53,9.61,13.11,26.39C31.1,62.26,40.55,70.22,53.48,71.32c-7.19,2.54-7.55,6.6-17.18,13.25-7.52,5.2-18.11,3.55-22.4,2.58,7.88,2.45,17.21,10.72,25.56,13.59a61.63,61.63,0,0,0,15.23,3.13v14.29l-43.78-1v10l81.76-1.87,16.73,1.84v7.75a2.23,2.23,0,0,0,2.22,2.23h25.63a2.23,2.23,0,0,0,2.23-2.23V109.43A2.23,2.23,0,0,0,137.25,107.2Zm-78.53-3.12c1.82,0,3.65,0,5.48-.15v14.44l-5.48-.12Z"/><path class="cls-1" d="M8.52,125.48a3.57,3.57,0,0,1-3.27,3.8h-2A3.57,3.57,0,0,1,0,125.48v-6.89a3.57,3.57,0,0,1,3.28-3.81h2a3.57,3.57,0,0,1,3.27,3.81Z"/></g></g></svg>