<svg xmlns="http://www.w3.org/2000/svg" viewBox="0 0 145.55 118.87"><defs><style>.cls-1{fill:#fff;}</style></defs><g id="Laag_2" data-name="Laag 2"><g id="EDITABLE_TEXT"><polygon class="cls-1" points="56.7 34.72 9.97 7.74 9.97 95.02 56.7 109.12 56.7 34.72"/><polygon class="cls-1" points="61.84 34.9 61.84 109.15 108.87 95.01 108.87 7.74 61.84 34.9"/><path class="cls-1" d="M145.55,5.53a5.53,5.53,0,1,0-11.05,0v6h11.05Z"/><polygon class="cls-1" points="135.87 93.47 134.5 93.47 140.03 112.8 145.55 93.47 144.18 93.47 145.55 93.47 145.55 15.82 144.18 15.82 142.8 15.82 141.35 15.82 138.6 15.82 137.24 15.82 135.87 15.82 134.49 15.82 134.49 93.47 135.87 93.47"/><polygon class="cls-1" points="118.91 11.49 113.9 7.53 113.9 97.39 61.98 114.17 59.58 114.17 59.1 114.17 56.7 114.17 5.01 99.73 5.01 7.53 0 11.49 0 103.24 56.46 118.87 59.1 118.87 59.58 118.87 62.21 118.87 114.31 102.33 118.91 100.98 118.91 11.49"/></g></g></svg>