<svg xmlns="http://www.w3.org/2000/svg" viewBox="0 0 150 76.49"><defs><style>.cls-1{fill:#fff;}</style></defs><g id="Laag_2" data-name="Laag 2"><g id="EDITABLE_TEXT"><path class="cls-1" d="M137,7.94C127.89.77,117,0,112.76,0a26.84,26.84,0,0,0-5.85.56l-.59.14C100.57,2.06,91,4.33,79.76,18.22l-.33.41a1.48,1.48,0,0,0-.28.84,1.45,1.45,0,0,0,.2.74l.25.41q2.78,4.64,4.61,8.06A1.47,1.47,0,0,0,86.6,29a3.39,3.39,0,0,0,.21-.29c9.67-13.37,17.25-15.16,22.26-16.33l.62-.15a14.33,14.33,0,0,1,3.07-.26c2.34,0,10.44.38,16.76,5.38C135.15,21.8,138,28.89,138,38.43c0,16-7.74,22.24-14.24,24.66a22.65,22.65,0,0,1-7.93,1.39,28.2,28.2,0,0,1-11.91-2.71l-.46-.22c-5.59-2.43-13.93-7.48-21.81-23.32C65.49,5.77,51.91,2.69,42.92.65l-.48-.1A26.67,26.67,0,0,0,36.65,0c-5.2,0-15.22,1-23.8,7.87C7,12.58,0,21.66,0,38.37c0,10.18,2.1,16.9,7.47,24A35.78,35.78,0,0,0,35.83,75.82a44.16,44.16,0,0,0,8.22-.8,35.12,35.12,0,0,0,14-6.41l4.72,4.27a1.42,1.42,0,0,0,1.92-.09,1.21,1.21,0,0,0,.34-.9L68.7,49.36V49.1a1.35,1.35,0,0,0-1.38-1.33h0L45.37,53.83,45,53.9a1.26,1.26,0,0,0-.7.4,1.38,1.38,0,0,0-.36,1,1.32,1.32,0,0,0,.45.93l4.55,4.11a21.46,21.46,0,0,1-7.1,2.89A31,31,0,0,1,36,63.8c-12.43,0-18.55-8.16-18.8-8.51l-.12-.16c-3.78-5-5.06-9.2-5.06-16.76,0-9.58,2.8-16.67,8.33-21.09C26.48,12.37,34.4,12,36.68,12a15.81,15.81,0,0,1,3.11.26l.48.11c7.18,1.62,17,3.85,30.63,31.22C78.1,58,87.12,67.48,98.47,72.46a40.55,40.55,0,0,0,17.37,4A34.53,34.53,0,0,0,128,74.34c6.63-2.47,22-10.92,22-35.91C150,21.74,142.91,12.63,137,7.94Z"/></g></g></svg>